# xmcd
#
# Track frame offsets:
#	150
#	21417
#	37502
#	60347
#	81716
#	109133
#	138205
#	166329
#	198058
#	218515
#	262390
#
# Disc length: 3952 seconds
#
# Revision: 1
# Processed by: cddbd v1.5.2PL0 Copyright (c) Steve Scherf et al.
# Submitted via: audiograbber 1.83.01
#
DISCID=910f6e0b
DTITLE=Bobby Messano - Live In Madison
DYEAR=2010
DGENRE=Blues
TTITLE0=Ramblin' On My Mind
TTITLE1=Politician
TTITLE2=Can't Find My Way Home
TTITLE3=Sea Of Hope
TTITLE4=Holdin' Ground
TTITLE5=Let Me Love You
TTITLE6=In The Depths of Love
TTITLE7=Crossroads Blues
TTITLE8=The Way Things Used to Be
TTITLE9=Little Wing
TTITLE10=Get Up and Dance With The Blues
EXTD=
EXTT0=
EXTT1=
EXTT2=
EXTT3=
EXTT4=
EXTT5=
EXTT6=
EXTT7=
EXTT8=
EXTT9=
EXTT10=
PLAYORDER=
